<svg xmlns="http://www.w3.org/2000/svg" xmlns:xlink="http://www.w3.org/1999/xlink" id="Layer_1" x="0px" y="0px" viewBox="0 0 512 512" style="enable-background:new 0 0 512 512;" xml:space="preserve"><path style="fill:#ABECEC;" d="M256,40.851L147.064,256L256,471.149c118.634,0,215.149-96.515,215.149-215.149 S374.634,40.851,256,40.851z"></path><path style="fill:#D5F6F5;" d="M40.851,256c0,118.634,96.515,215.149,215.149,215.149V40.851 C137.366,40.851,40.851,137.366,40.851,256z"></path><path style="fill:#FFF1B1;" d="M257.928,73.543v364.914c99.731-1.035,180.54-82.487,180.54-182.457S357.659,74.578,257.928,73.543z"></path><path style="fill:#FFFFFF;" d="M257.928,73.543C339.641,74.817,405.787,156.171,405.787,256s-66.146,181.183-147.859,182.457 c-0.643,0.011-1.285,0.011-1.928,0.011c-100.613,0-182.468-81.855-182.468-182.468S155.387,73.532,256,73.532 C256.643,73.532,257.285,73.532,257.928,73.543z"></path><path style="fill:#FFC1A6;" d="M256,106.213v232.034c58.063,0,105.123-47.06,105.123-105.123v-21.787 C361.123,153.284,314.063,106.213,256,106.213z"></path><path style="fill:#FFDBCC;" d="M256,106.213c40.012,0,72.443,47.071,72.443,105.123v21.787c0,58.063-32.43,105.123-72.443,105.123 c-58.063,0-105.123-47.06-105.123-105.123v-21.787C150.877,153.284,197.937,106.213,256,106.213z"></path><path style="fill:#FEDC3D;" d="M257.863,370.394l70.895,88.078c20.744-7.481,40.022-18.056,57.267-31.178 C354.075,392.727,308.524,370.918,257.863,370.394z"></path><path style="fill:#FFE777;" d="M257.863,370.394c-0.621-0.011-1.242-0.011-1.863-0.011c-51.407,0-97.685,21.917-130.024,56.908 c36.143,27.504,81.206,43.858,130.024,43.858c41.76,0,80.765-11.975,113.797-32.649 C343.735,397.597,303.334,371.104,257.863,370.394z"></path><path style="fill:#D5F6F5;" d="M277.787,371.712L256,433.392c30.077,0,54.457-24.369,54.468-54.457 C299.967,375.536,289.04,373.095,277.787,371.712z"></path><path style="fill:#FFFFFF;" d="M277.787,371.712v7.212c0,30.088-9.75,54.468-21.787,54.468c-30.077,0-54.468-24.38-54.468-54.468 c17.157-5.545,35.459-8.541,54.468-8.541C263.375,370.383,270.641,370.83,277.787,371.712z"></path><path d="M296.306,196.831c-4.512,0-8.17,3.657-8.17,8.17v16.34c0,4.513,3.658,8.17,8.17,8.17c4.512,0,8.17-3.657,8.17-8.17v-16.34 C304.477,200.488,300.819,196.831,296.306,196.831z"></path><path d="M215.694,196.831c-4.512,0-8.17,3.657-8.17,8.17v16.34c0,4.513,3.658,8.17,8.17,8.17c4.512,0,8.17-3.657,8.17-8.17v-16.34 C223.864,200.488,220.206,196.831,215.694,196.831z"></path><path d="M274.387,251.56c-4.368-1.129-8.826,1.495-9.957,5.863c-0.998,3.855-4.465,6.549-8.431,6.549 c-3.965,0-7.433-2.694-8.431-6.549c-1.132-4.369-5.587-6.996-9.957-5.863c-4.368,1.131-6.993,5.588-5.862,9.957 c2.864,11.067,12.836,18.796,24.25,18.796c11.414,0,21.386-7.729,24.25-18.796C281.381,257.148,278.756,252.691,274.387,251.56z"></path><path d="M256,98.044c-62.471,0-113.294,50.823-113.294,113.294v21.787c0,62.471,50.823,113.294,113.294,113.294 s113.294-50.823,113.294-113.294v-21.787C369.294,148.867,318.471,98.044,256,98.044z M352.953,233.124 c0,53.46-43.493,96.953-96.953,96.953s-96.953-43.493-96.953-96.953v-21.787c0-53.46,43.493-96.953,96.953-96.953 s96.953,43.493,96.953,96.953V233.124z"></path><path d="M503.83,247.83h-24.676C474.936,131.177,380.824,37.064,264.17,32.845V8.17c0-4.513-3.658-8.17-8.17-8.17 s-8.17,3.657-8.17,8.17v24.675C131.175,37.064,37.064,131.177,32.846,247.83H8.17C3.658,247.83,0,251.487,0,256 s3.658,8.17,8.17,8.17h24.676c4.218,116.653,98.329,210.765,214.983,214.984v24.675c0,4.513,3.658,8.17,8.17,8.17 s8.17-3.657,8.17-8.17v-24.675c116.654-4.219,210.765-98.33,214.983-214.984h24.676c4.512,0,8.17-3.657,8.17-8.17 S508.342,247.83,503.83,247.83z M194.407,390.258c5.35,29.147,30.924,51.308,61.592,51.308s56.243-22.161,61.593-51.308 c20.711,8.128,39.804,20.307,55.982,35.985c-33.416,23.148-73.936,36.735-117.575,36.735s-84.158-13.588-117.574-36.737 C154.603,410.564,173.698,398.386,194.407,390.258z M210.108,384.963c14.821-4.203,30.258-6.41,45.892-6.41 s31.071,2.207,45.892,6.41c-2.969,22.686-22.409,40.262-45.892,40.262S213.077,407.649,210.108,384.963z M386.767,416.313 c-34.587-34.464-81.814-54.1-130.767-54.1c-48.954,0-96.18,19.636-130.767,54.1C78.75,378.327,49.021,320.572,49.021,256 c0-114.129,92.851-206.979,206.979-206.979S462.979,141.871,462.979,256C462.979,320.572,433.25,378.326,386.767,416.313z"></path><path d="M256,65.362c-105.118,0-190.638,85.52-190.638,190.638c0,49.944,19.265,97.194,54.248,133.046 c1.601,1.641,3.723,2.464,5.849,2.464c2.058,0,4.117-0.772,5.705-2.323c3.23-3.152,3.293-8.325,0.142-11.554 C99.318,344.852,81.702,301.654,81.702,256c0-96.109,78.19-174.298,174.298-174.298S430.298,159.891,430.298,256 c0,45.655-17.616,88.852-49.604,121.633c-3.152,3.23-3.087,8.403,0.142,11.554c3.229,3.15,8.402,3.086,11.553-0.142 c34.984-35.851,54.25-83.101,54.25-133.045C446.638,150.882,361.118,65.362,256,65.362z"></path><path d="M8.17,49.021h24.511v24.511c0,4.513,3.658,8.17,8.17,8.17s8.17-3.657,8.17-8.17V49.021h24.511c4.512,0,8.17-3.657,8.17-8.17 s-3.658-8.17-8.17-8.17H49.021V8.17c0-4.513-3.658-8.17-8.17-8.17s-8.17,3.657-8.17,8.17v24.511H8.17c-4.512,0-8.17,3.657-8.17,8.17 S3.658,49.021,8.17,49.021z"></path><path d="M438.468,49.021h24.511v24.511c0,4.513,3.658,8.17,8.17,8.17c4.512,0,8.17-3.657,8.17-8.17V49.021h24.511 c4.512,0,8.17-3.657,8.17-8.17s-3.658-8.17-8.17-8.17h-24.511V8.17c0-4.513-3.658-8.17-8.17-8.17c-4.512,0-8.17,3.657-8.17,8.17 v24.511h-24.511c-4.512,0-8.17,3.657-8.17,8.17S433.956,49.021,438.468,49.021z"></path><path d="M503.83,462.979h-24.511v-24.511c0-4.513-3.658-8.17-8.17-8.17c-4.512,0-8.17,3.657-8.17,8.17v24.511h-24.511 c-4.512,0-8.17,3.657-8.17,8.17c0,4.513,3.658,8.17,8.17,8.17h24.511v24.511c0,4.513,3.658,8.17,8.17,8.17 c4.512,0,8.17-3.657,8.17-8.17v-24.511h24.511c4.512,0,8.17-3.657,8.17-8.17C512,466.636,508.342,462.979,503.83,462.979z"></path><path d="M73.532,462.979H49.021v-24.511c0-4.513-3.658-8.17-8.17-8.17s-8.17,3.657-8.17,8.17v24.511H8.17 c-4.512,0-8.17,3.657-8.17,8.17c0,4.513,3.658,8.17,8.17,8.17h24.511v24.511c0,4.513,3.658,8.17,8.17,8.17s8.17-3.657,8.17-8.17 v-24.511h24.511c4.512,0,8.17-3.657,8.17-8.17C81.702,466.636,78.044,462.979,73.532,462.979z"></path><g></g><g></g><g></g><g></g><g></g><g></g><g></g><g></g><g></g><g></g><g></g><g></g><g></g><g></g><g></g></svg>