<svg class="hdt-inline-block" xmlns="http://www.w3.org/2000/svg" width="21" height="21" viewBox="0 0 21 21" fill="currentColor"><path d="M10.5 0.614258L2.625 3.47813V10.4055C2.62689 11.7575 2.94764 13.0901 3.56122 14.2949C4.17479 15.4997 5.06388 16.5428 6.15628 17.3394L10.5 20.4986L14.8437 17.3394C15.9361 16.5428 16.8252 15.4997 17.4388 14.2949C18.0524 13.0901 18.3731 11.7575 18.375 10.4055V3.47813L10.5 0.614258ZM17.0625 10.4055C17.0607 11.5506 16.789 12.6791 16.2694 13.6994C15.7498 14.7198 14.9969 15.6033 14.072 16.2783L10.5 18.8764L6.92803 16.2783C6.00306 15.6033 5.25023 14.7198 4.73064 13.6994C4.21104 12.6791 3.93931 11.5506 3.9375 10.4055V4.39688L10.5 2.01076L17.0625 4.39688V10.4055Z"></path><path d="M7.68184 8.88757L6.75391 9.81551L9.67881 12.7404L14.2443 8.17489L13.3164 7.24695L9.67881 10.8845L7.68184 8.88757Z"></path></svg>