<svg xmlns="http://www.w3.org/2000/svg" xmlns:xlink="http://www.w3.org/1999/xlink" id="Layer_1" x="0px" y="0px" viewBox="0 0 512 512" style="enable-background:new 0 0 512 512;" xml:space="preserve"><path style="fill:#F4D853;" d="M273.015,7.395C268.612,2.679,262.451,0,256,0c-6.451,0-12.615,2.679-17.015,7.395 c-6.994,7.494-68.318,74.909-68.318,133.793c0,30.658,8.561,54.312,25.442,70.308c14.87,14.088,35.022,21.231,59.892,21.231 s45.019-7.143,59.889-21.231c16.884-15.996,25.445-39.651,25.445-70.308C341.333,82.303,280.007,14.888,273.015,7.395z"></path><path style="fill:#E9A440;" d="M273.015,7.395C268.612,2.679,262.451,0,256,0v232.727c24.869,0,45.019-7.143,59.889-21.231 c16.884-15.996,25.445-39.651,25.445-70.308C341.333,82.303,280.007,14.888,273.015,7.395z"></path><path style="fill:#DF6246;" d="M488.727,372.364h-7.758v-69.818c0-12.853-10.422-23.273-23.273-23.273h-7.758v-69.818 c0-12.853-10.422-23.273-23.273-23.273H85.333c-12.854,0-23.273,10.42-23.273,23.273v69.818h-7.758 c-12.854,0-23.273,10.42-23.273,23.273v69.818h-7.758C10.418,372.364,0,382.782,0,395.636v93.091C0,501.582,10.418,512,23.273,512 h465.455C501.578,512,512,501.582,512,488.727v-93.091C512,382.782,501.578,372.364,488.727,372.364z"></path><path style="fill:#DD512A;" d="M488.727,372.364h-7.758v-69.818c0-12.853-10.422-23.273-23.273-23.273h-7.758v-69.818 c0-12.853-10.422-23.273-23.273-23.273H256V512h232.727C501.578,512,512,501.582,512,488.727v-93.091 C512,382.782,501.578,372.364,488.727,372.364z"></path><g></g><g></g><g></g><g></g><g></g><g></g><g></g><g></g><g></g><g></g><g></g><g></g><g></g><g></g><g></g></svg>