<svg xmlns="http://www.w3.org/2000/svg" width="200" height="200" fill="none" viewBox="0 0 200 200" version="1.1" xmlns:xlink="http://www.w3.org/1999/xlink" xmlns:svgjs="http://svgjs.dev/svgjs"><g clip-path="url(#clip0_116_2)"><path fill="rgba(255, 255, 255, 1)" fill-rule="evenodd" d="M29.29 29.29C19.265 39.312 15.645 53.314 18.43 66.211 7.34 73.364 0 85.825 0 100s7.341 26.636 18.43 33.788c-2.784 12.897.836 26.899 10.86 36.923 10.023 10.023 24.025 13.643 36.922 10.86C73.364 192.659 85.825 200 100 200c14.175 0 26.636-7.341 33.788-18.429 12.897 2.783 26.899-.837 36.923-10.86 10.023-10.024 13.643-24.026 10.86-36.923C192.659 126.636 200 114.175 200 100c0-14.175-7.341-26.636-18.429-33.788 2.783-12.897-.837-26.9-10.86-36.923-10.024-10.023-24.026-13.643-36.923-10.86C126.636 7.341 114.175 0 100 0 85.825 0 73.364 7.341 66.212 18.43c-12.897-2.784-26.9.836-36.923 10.86Z" clip-rule="evenodd"></path></g></svg>